<svg xmlns="http://www.w3.org/2000/svg" xmlns:xlink="http://www.w3.org/1999/xlink" width="100" zoomAndPan="magnify" viewBox="0 0 75 74.999997" height="100" preserveAspectRatio="xMidYMid meet" version="1.0"><defs><clipPath id="f90374134c"><path d="M 10.808594 0 L 67.058594 0 L 67.058594 75 L 10.808594 75 Z M 10.808594 0 " clip-rule="nonzero"/></clipPath><clipPath id="95802ad621"><path d="M 31.273438 19 L 51.523438 19 L 51.523438 36.25 L 31.273438 36.25 Z M 31.273438 19 " clip-rule="nonzero"/></clipPath></defs><g clip-path="url(#f90374134c)"><path fill="#5e17eb" d="M 38.933594 0 C 23.421875 0 10.808594 12.613281 10.808594 28.125 C 10.808594 47.621094 36.195312 73.234375 37.273438 74.316406 C 37.734375 74.769531 38.332031 75 38.933594 75 C 39.53125 75 40.132812 74.769531 40.59375 74.316406 C 41.671875 73.234375 67.058594 47.621094 67.058594 28.125 C 67.058594 12.613281 54.445312 0 38.933594 0 Z M 38.933594 0 " fill-opacity="1" fill-rule="nonzero"/></g><path fill="#fafafa" d="M 52.996094 28.125 C 52.996094 29.046875 52.90625 29.960938 52.726562 30.867188 C 52.546875 31.773438 52.277344 32.652344 51.925781 33.507812 C 51.570312 34.359375 51.140625 35.171875 50.625 35.9375 C 50.113281 36.707031 49.53125 37.414062 48.875 38.070312 C 48.222656 38.722656 47.511719 39.304688 46.746094 39.816406 C 45.976562 40.332031 45.167969 40.765625 44.316406 41.117188 C 43.460938 41.46875 42.582031 41.738281 41.675781 41.917969 C 40.769531 42.097656 39.855469 42.1875 38.933594 42.1875 C 38.011719 42.1875 37.09375 42.097656 36.191406 41.917969 C 35.285156 41.738281 34.40625 41.46875 33.550781 41.117188 C 32.699219 40.765625 31.886719 40.332031 31.121094 39.816406 C 30.351562 39.304688 29.640625 38.722656 28.988281 38.070312 C 28.335938 37.414062 27.753906 36.707031 27.242188 35.9375 C 26.726562 35.171875 26.292969 34.359375 25.941406 33.507812 C 25.585938 32.652344 25.320312 31.773438 25.140625 30.867188 C 24.960938 29.960938 24.871094 29.046875 24.871094 28.125 C 24.871094 27.203125 24.960938 26.289062 25.140625 25.382812 C 25.320312 24.476562 25.585938 23.597656 25.941406 22.742188 C 26.292969 21.890625 26.726562 21.078125 27.242188 20.3125 C 27.753906 19.542969 28.335938 18.835938 28.988281 18.179688 C 29.640625 17.527344 30.351562 16.945312 31.121094 16.433594 C 31.886719 15.917969 32.699219 15.484375 33.550781 15.132812 C 34.40625 14.78125 35.285156 14.511719 36.191406 14.332031 C 37.09375 14.152344 38.011719 14.0625 38.933594 14.0625 C 39.855469 14.0625 40.769531 14.152344 41.675781 14.332031 C 42.582031 14.511719 43.460938 14.78125 44.316406 15.132812 C 45.167969 15.484375 45.976562 15.917969 46.746094 16.433594 C 47.511719 16.945312 48.222656 17.527344 48.875 18.179688 C 49.53125 18.835938 50.113281 19.542969 50.625 20.3125 C 51.140625 21.078125 51.570312 21.890625 51.925781 22.742188 C 52.277344 23.597656 52.546875 24.476562 52.726562 25.382812 C 52.90625 26.289062 52.996094 27.203125 52.996094 28.125 Z M 52.996094 28.125 " fill-opacity="1" fill-rule="nonzero"/><g clip-path="url(#95802ad621)"><path fill="#5e17eb" d="M 50.847656 31.414062 C 50.652344 31.582031 50.449219 31.734375 50.242188 31.886719 C 49.734375 32.238281 49.238281 32.625 48.660156 32.875 C 47.613281 33.3125 46.410156 33.292969 45.332031 32.957031 C 45.242188 28.957031 41.011719 29.273438 39.519531 25.328125 C 39.511719 25.320312 39.507812 25.308594 39.503906 25.292969 C 39.660156 25.035156 39.757812 24.738281 39.792969 24.425781 C 39.972656 23.316406 39.945312 22.121094 39.476562 21.078125 C 39.171875 20.417969 38.695312 19.792969 38.066406 19.410156 C 37.289062 19 36.347656 19.195312 35.558594 19.472656 C 34.980469 19.730469 34.554688 20.28125 33.910156 20.394531 C 33.683594 20.449219 33.464844 20.433594 33.242188 20.421875 C 33.003906 20.40625 32.761719 20.390625 32.515625 20.460938 C 31.753906 20.6875 31.511719 21.621094 31.785156 22.300781 C 31.984375 22.828125 32.332031 23.292969 32.722656 23.691406 C 33.492188 24.449219 34.648438 24.761719 35.757812 24.84375 C 35.578125 25.0625 35.410156 25.296875 35.265625 25.542969 C 34.695312 26.511719 34.476562 27.652344 34.53125 28.765625 C 34.507812 30.003906 34.675781 31.742188 34.082031 32.84375 C 33.691406 33.359375 32.960938 33.308594 32.402344 33.507812 C 31.570312 33.695312 31.277344 34.707031 31.980469 35.238281 C 32.457031 35.621094 33.085938 35.605469 33.664062 35.550781 C 34.847656 35.457031 35.910156 34.8125 36.753906 34.007812 C 37.210938 34.691406 37.871094 35.238281 38.585938 35.632812 C 38.605469 35.644531 38.625 35.648438 38.640625 35.648438 C 38.699219 35.648438 38.757812 35.609375 38.78125 35.554688 C 38.832031 35.429688 38.71875 35.371094 38.625 35.3125 C 38.507812 35.230469 38.375 35.128906 38.246094 35.027344 C 37.78125 34.65625 37.332031 34.257812 37.023438 33.742188 C 37.710938 33.007812 38.234375 32.070312 38.335938 31.058594 C 38.433594 30.242188 37.902344 28.894531 36.890625 29.425781 C 36.382812 29.722656 36.167969 30.316406 36.054688 30.863281 C 35.851562 31.800781 36.035156 32.816406 36.53125 33.636719 C 35.515625 34.65625 34.027344 35.40625 32.566406 35.074219 C 32.140625 34.96875 31.792969 34.460938 32.175781 34.101562 C 32.484375 33.863281 32.898438 33.84375 33.265625 33.746094 C 34.375 33.5625 34.714844 32.867188 34.867188 31.828125 C 35.125 30.28125 34.816406 28.695312 35.09375 27.152344 C 35.214844 26.542969 35.445312 25.949219 35.796875 25.433594 C 35.871094 25.265625 36.179688 25.054688 36.132812 24.863281 C 36.34375 24.867188 36.546875 24.867188 36.746094 24.859375 C 36.929688 25.480469 37.375 26.144531 38.089844 26.15625 C 38.601562 26.136719 39.027344 25.898438 39.324219 25.546875 C 39.394531 25.78125 39.53125 26.015625 39.625 26.230469 C 41.046875 29.414062 44.894531 29.386719 44.980469 32.835938 C 43.910156 32.449219 42.910156 31.851562 41.800781 31.582031 C 41.308594 31.527344 40.777344 31.5625 40.347656 31.828125 C 39.835938 32.121094 39.316406 32.542969 39.246094 33.167969 C 39.140625 33.625 39.265625 34.097656 39.417969 34.53125 C 39.761719 35.503906 40.6875 36.261719 41.734375 36.292969 C 41.777344 36.296875 41.816406 36.296875 41.855469 36.296875 C 42.453125 36.296875 43.03125 36.082031 43.554688 35.804688 C 44.488281 35.328125 45.210938 34.421875 45.316406 33.359375 C 46.40625 33.671875 47.609375 33.664062 48.671875 33.253906 C 49.546875 32.878906 50.316406 32.28125 51.058594 31.691406 C 51.242188 31.554688 51.019531 31.269531 50.84375 31.414062 Z M 36.480469 30.949219 C 36.589844 30.488281 36.753906 29.847656 37.289062 29.738281 C 37.730469 29.746094 37.855469 30.3125 37.894531 30.667969 C 37.945312 31.664062 37.472656 32.636719 36.808594 33.351562 C 36.457031 32.613281 36.320312 31.757812 36.480469 30.949219 Z M 39.464844 23.589844 C 39.398438 24.507812 39.253906 25.542969 38.171875 25.722656 C 37.167969 25.695312 37.050781 24.363281 36.910156 23.601562 C 36.851562 23.390625 36.945312 22.964844 36.636719 22.964844 C 36.628906 22.964844 36.625 22.964844 36.621094 22.964844 C 36.292969 23.03125 36.519531 23.550781 36.511719 23.78125 C 36.554688 24.078125 36.609375 24.371094 36.6875 24.65625 C 35.464844 24.605469 34.050781 24.410156 33.089844 23.589844 C 32.554688 23.0625 31.996094 22.382812 32.011719 21.59375 C 32.03125 21.222656 32.28125 20.839844 32.664062 20.769531 C 32.863281 20.742188 33.066406 20.757812 33.269531 20.769531 C 33.5625 20.785156 33.855469 20.800781 34.144531 20.703125 C 34.707031 20.5625 35.121094 20.132812 35.617188 19.867188 C 36.246094 19.609375 36.992188 19.464844 37.652344 19.683594 C 38.164062 19.882812 38.5 20.328125 38.828125 20.75 C 39.378906 21.582031 39.539062 22.609375 39.464844 23.589844 Z M 42.042969 35.847656 C 41.167969 35.914062 40.320312 35.386719 39.953125 34.597656 C 39.734375 34.117188 39.582031 33.5625 39.753906 33.042969 C 39.878906 32.691406 40.183594 32.464844 40.480469 32.261719 C 40.765625 32.058594 41.113281 31.972656 41.457031 31.972656 C 41.570312 31.972656 41.683594 31.984375 41.792969 32 C 42.898438 32.289062 43.898438 32.875 44.972656 33.25 C 44.851562 34.726562 43.429688 35.703125 42.042969 35.847656 Z M 42.042969 35.847656 " fill-opacity="1" fill-rule="nonzero"/></g></svg>